<svg xmlns="http://www.w3.org/2000/svg" width="24" height="25" fill="none">
    <g clip-path="url(#a)">
        <path fill="#fff"
            d="M12 .583c-6.627 0-12 5.373-12 12 0 5.628 3.875 10.35 9.101 11.647v-7.98H6.627v-3.667H9.1v-1.58c0-4.084 1.849-5.977 5.859-5.977.76 0 2.072.149 2.608.298v3.324c-.283-.03-.775-.045-1.386-.045-1.967 0-2.728.746-2.728 2.683v1.297h3.92l-.673 3.668h-3.247v8.244C19.396 23.779 24 18.72 24 12.583c0-6.627-5.373-12-12-12Z" />
    </g>
    <defs>
        <clipPath id="a">
            <path fill="#fff" d="M0 .583h24v24H0z" />
        </clipPath>
    </defs>
</svg>