<svg xmlns="http://www.w3.org/2000/svg" width="45.283" height="40" viewBox="0 0 45.283 40">
  <path id="Path_1" data-name="Path 1" d="M30.556,14.18a2.891,2.891,0,0,1,1.663.564,2.938,2.938,0,0,1,1.04,1.427,4.791,4.791,0,0,0,1.7,2.328,4.714,4.714,0,0,0,2.713.92h6.817a.828.828,0,0,1,.567.258.845.845,0,0,1,.232.583c0,7.769-5.623,13.664-12.56,13.664H27.7a13.419,13.419,0,0,0-9.661,3.252,12.1,12.1,0,0,1-4.991,2.815.826.826,0,0,1-.617-.151.842.842,0,0,1-.332-.546.89.89,0,0,1,0-.332q.911-4.8-1.414-5.206C4.661,32.713.053,27.293.053,20.259a.845.845,0,0,1,.233-.584.828.828,0,0,1,.569-.256H7.564a4.713,4.713,0,0,0,2.71-.921,4.791,4.791,0,0,0,1.694-2.327,2.938,2.938,0,0,1,1.04-1.427,2.892,2.892,0,0,1,1.663-.564ZM43.865,9.314c.137.58-.025.908-.478.983l-6.534.622a2.83,2.83,0,0,1-1.7-.415,2.874,2.874,0,0,1-1.139-1.337,4.672,4.672,0,0,0-1.853-2.18A4.6,4.6,0,0,0,29.4,6.31L13.662,7.81A4.769,4.769,0,0,0,11.042,9a4.849,4.849,0,0,0-1.473,2.492,2.981,2.981,0,0,1-.907,1.529,2.93,2.93,0,0,1-1.61.731l-5.939.567H.939c-.707.063-1.015-.24-.923-.895C.993,7.323,5.423,2.5,11.141,1.949L31.055.05c5.715-.542,10.884,3.4,12.81,9.244" fill="#242127" fill-rule="evenodd"/>
</svg>
